<?xml version="1.0" standalone="no"?>
<!DOCTYPE svg PUBLIC "-//W3C//DTD SVG 20010904//EN"
 "http://www.w3.org/TR/2001/REC-SVG-20010904/DTD/svg10.dtd">
<svg version="1.0" xmlns="http://www.w3.org/2000/svg"
 width="592.000000pt" height="592.000000pt" viewBox="0 0 592.000000 592.000000"
 preserveAspectRatio="xMidYMid meet">
<metadata>
Created by potrace 1.14, written by Peter Selinger 2001-2017
</metadata>
<g transform="translate(0.000000,592.000000) scale(0.100000,-0.100000)"
fill="#000000" stroke="none">
<path d="M1129 4156 c-84 -194 -86 -199 -107 -246 -11 -25 -39 -88 -62 -140
-23 -52 -50 -113 -60 -135 -10 -22 -44 -101 -75 -175 -32 -74 -60 -139 -64
-145 -4 -5 -20 -41 -36 -80 -16 -38 -41 -97 -55 -130 -15 -33 -72 -163 -127
-290 -55 -126 -110 -250 -121 -275 -11 -25 -98 -223 -192 -440 -95 -217 -181
-413 -191 -434 -11 -22 -19 -43 -19 -48 0 -4 206 -8 459 -8 l458 0 58 153 c32
83 71 184 86 222 l28 70 510 2 c327 2 512 -1 516 -7 3 -5 8 -18 10 -27 2 -10
24 -67 48 -128 24 -60 59 -149 77 -198 l34 -87 468 0 c432 0 467 1 461 17 -4
9 -17 38 -30 65 -13 26 -23 50 -23 53 0 4 -34 82 -106 243 -13 29 -24 54 -24
57 0 3 -39 90 -80 180 -5 11 -41 94 -81 185 -39 91 -84 193 -100 228 -16 35
-29 65 -29 67 0 3 -13 34 -30 70 -16 36 -30 67 -30 70 0 2 -13 32 -29 67 -16
35 -52 117 -81 183 -29 66 -60 138 -70 160 -10 22 -30 68 -44 102 -14 35 -37
86 -50 115 -13 29 -49 112 -80 183 -31 72 -61 139 -66 150 -5 11 -54 122 -108
246 l-98 226 -446 0 -446 0 -53 -121z m611 -1081 c61 -160 117 -307 125 -327
l15 -38 -260 0 -259 0 28 78 c16 42 34 91 40 107 6 17 16 39 21 50 5 11 34 88
65 170 31 83 62 164 70 180 7 17 17 43 20 58 4 16 11 25 16 20 5 -5 58 -139
119 -298z"/>
<path d="M3439 4271 c-4 -28 -1 -680 4 -687 3 -5 167 -9 391 -9 335 0 385 -2
388 -15 2 -8 4 -450 3 -982 l0 -968 452 0 453 0 2 982 3 983 390 0 390 0 0
350 0 350 -1237 1 c-681 0 -1238 -2 -1239 -5z"/>
</g>
</svg>
